<svg xmlns="http://www.w3.org/2000/svg" xmlns:xlink="http://www.w3.org/1999/xlink" width="500" zoomAndPan="magnify" viewBox="0 0 375 374.999991" height="500" preserveAspectRatio="xMidYMid meet" version="1.2"><defs><clipPath id="8c4bad5b49"><path d="M 227 36.050781 L 339 36.050781 L 339 182 L 227 182 Z M 227 36.050781 "/></clipPath></defs><g id="2c52b18740"><rect x="0" width="375" y="0" height="374.999991" style="fill:#ffffff;fill-opacity:1;stroke:none;"/><rect x="0" width="375" y="0" height="374.999991" style="fill:#ffffff;fill-opacity:1;stroke:none;"/><path style=" stroke:none;fill-rule:evenodd;fill:#1893f8;fill-opacity:1;" d="M 292.1875 106.246094 C 313.386719 115.925781 328.871094 130.566406 335.296875 149.859375 C 343.753906 175.242188 334.109375 204.257812 311.046875 229.921875 C 287.46875 256.160156 250.179688 278.953125 204.667969 291.695312 C 159.15625 304.441406 114.847656 304.332031 81.003906 293.734375 C 47.664062 283.292969 24.78125 262.519531 20.226562 235.382812 C 17.574219 219.597656 21.117188 203.507812 29.5 188.046875 C 27.242188 195.003906 26.0625 202.117188 26.113281 209.339844 C 26.320312 236.65625 46.492188 259.109375 79.101562 270.0625 C 112.195312 281.179688 157.390625 280.496094 201.460938 266.691406 C 245.53125 252.886719 278.375 230.25 298.375 205.183594 C 317.023438 181.804688 323.34375 156.007812 315.078125 134.652344 C 310.617188 123.105469 302.6875 113.675781 292.1875 106.246094 "/><path style=" stroke:none;fill-rule:evenodd;fill:#1893f8;fill-opacity:1;" d="M 351.207031 180.320312 C 357.316406 204.140625 347.121094 232.738281 324.367188 258.652344 C 299.988281 286.417969 261.835938 311.070312 217.144531 324.941406 C 172.453125 338.816406 131.433594 338.859375 101.71875 328.257812 C 87.683594 323.25 76.320312 315.753906 68.308594 306.355469 C 74.828125 311.230469 82.589844 315.261719 91.417969 318.304688 C 121.820312 328.78125 164.210938 328.058594 210.359375 313.234375 C 256.507812 298.410156 295.765625 272.871094 321.0625 244.433594 C 339.824219 223.339844 350.511719 200.710938 351.207031 180.320312 "/><path style=" stroke:none;fill-rule:evenodd;fill:#1893f8;fill-opacity:1;" d="M 145.761719 192.921875 C 142.058594 183.855469 134.820312 179.148438 126.871094 178.09375 C 133.824219 134.117188 139.722656 90.113281 142.738281 45.660156 L 142.96875 42.304688 L 136.253906 41.847656 L 136.027344 45.203125 C 133 89.800781 127.058594 133.9375 120.0625 178.054688 C 111.882812 179.007812 103.78125 183.457031 98.625 190.691406 Z M 67.367188 254.058594 C 73.175781 248.476562 78.726562 242.726562 83.9375 236.75 C 81.058594 243.660156 77.507812 250.417969 73.511719 257.070312 C 76.410156 258.363281 79.359375 259.503906 82.316406 260.496094 C 84.148438 261.113281 86.007812 261.683594 87.886719 262.214844 L 100.480469 231.210938 L 95.253906 264.066406 C 101.324219 265.410156 107.5625 266.359375 113.902344 266.953125 L 124.976562 227.117188 L 122.582031 267.425781 C 134.804688 267.265625 147.386719 265.289062 160.347656 261.410156 C 159.066406 240.558594 154.273438 218.78125 146.964844 196.34375 L 96.59375 193.960938 C 86.320312 212.734375 69.828125 228.128906 50.914062 242.199219 C 55.691406 246.859375 61.328125 250.8125 67.367188 254.058594 Z M 67.367188 254.058594 "/><path style=" stroke:none;fill-rule:evenodd;fill:#1893f8;fill-opacity:1;" d="M 159.023438 129.183594 C 202.921875 129.183594 246.816406 129.183594 290.722656 129.183594 C 294.367188 129.183594 297.347656 132.164062 297.347656 135.808594 C 297.347656 138.800781 295.34375 141.34375 292.609375 142.164062 L 287.742188 202.214844 C 265.019531 228.824219 231.324219 246.765625 198.449219 257.0625 C 196.289062 257.742188 194.09375 258.390625 191.871094 259.015625 L 185.414062 258.964844 C 176.101562 258.894531 166.167969 253.628906 164.820312 237.011719 L 157.136719 142.164062 C 154.402344 141.347656 152.394531 138.800781 152.394531 135.8125 C 152.394531 132.164062 155.375 129.183594 159.023438 129.183594 "/><g clip-rule="nonzero" clip-path="url(#8c4bad5b49)"><path style=" stroke:none;fill-rule:evenodd;fill:#1893f8;fill-opacity:1;" d="M 227.265625 47.347656 L 227.476562 61.65625 L 253.328125 76.074219 L 267.117188 94.976562 L 254.308594 142.78125 L 252.140625 142.199219 L 242.527344 178.070312 L 253.960938 181.132812 L 263.570312 145.261719 L 261.402344 144.679688 L 274.210938 96.878906 L 295.605469 87.402344 L 325.203125 87.839844 L 332.539062 75.554688 Z M 227.101562 36.050781 L 227.234375 45.300781 L 333.585938 73.796875 L 338.324219 65.855469 C 263.21875 45.730469 302.210938 56.179688 227.101562 36.050781 Z M 227.101562 36.050781 "/></g><path style=" stroke:none;fill-rule:evenodd;fill:#1893f8;fill-opacity:1;" d="M 183.179688 97.144531 L 184.003906 97.144531 C 181.273438 90.703125 174.691406 81.046875 166.957031 81.046875 L 159.214844 81.046875 L 159.214844 67.085938 L 216.332031 67.085938 C 228.214844 67.085938 236.679688 76.375 234.847656 88.441406 C 220.382812 87.59375 218.664062 90.242188 213.246094 97.144531 L 214.074219 97.144531 C 215.789062 97.144531 217.1875 98.550781 217.1875 100.261719 L 217.1875 117.523438 C 217.1875 119.234375 215.785156 120.640625 214.074219 120.640625 L 213.246094 120.640625 L 213.246094 139.53125 L 184.007812 139.53125 L 184.007812 120.640625 L 183.179688 120.640625 C 181.46875 120.640625 180.066406 119.238281 180.066406 117.523438 L 180.066406 100.261719 C 180.0625 98.546875 181.464844 97.144531 183.179688 97.144531 M 165.96875 84.410156 C 162.921875 96.78125 157.683594 106.621094 151.414062 115.285156 L 159.460938 114.300781 C 165.957031 107.722656 171.96875 100.390625 177.566406 92.402344 C 174.796875 88.320312 170.949219 84.410156 166.957031 84.410156 Z M 153.613281 67.085938 L 157.199219 67.085938 L 157.199219 81.046875 L 153.613281 81.046875 Z M 153.613281 67.085938 "/><path style=" stroke:none;fill-rule:evenodd;fill:#1893f8;fill-opacity:1;" d="M 66.039062 171.929688 C 66.65625 188.945312 64.421875 185.078125 78.851562 194.121094 C 61.832031 194.738281 65.703125 192.503906 56.660156 206.933594 C 56.042969 189.914062 58.277344 193.785156 43.847656 184.742188 C 60.867188 184.125 56.996094 186.359375 66.039062 171.929688 "/><path style=" stroke:none;fill-rule:evenodd;fill:#1893f8;fill-opacity:1;" d="M 104.601562 146.996094 C 108.136719 158.503906 105.90625 156.273438 117.414062 159.808594 C 105.90625 163.34375 108.136719 161.109375 104.601562 172.621094 C 101.066406 161.109375 103.300781 163.34375 91.789062 159.808594 C 103.300781 156.273438 101.066406 158.503906 104.601562 146.996094 "/><path style=" stroke:none;fill-rule:evenodd;fill:#1893f8;fill-opacity:1;" d="M 73.554688 129.582031 C 76.773438 140.0625 74.742188 138.027344 85.21875 141.246094 C 74.742188 144.464844 76.773438 142.429688 73.554688 152.910156 C 70.335938 142.429688 72.371094 144.464844 61.890625 141.246094 C 72.371094 138.027344 70.335938 140.0625 73.554688 129.582031 "/></g></svg>