<svg xmlns="http://www.w3.org/2000/svg" xmlns:xlink="http://www.w3.org/1999/xlink" width="500" zoomAndPan="magnify" viewBox="0 0 375 374.999991" height="500" preserveAspectRatio="xMidYMid meet" version="1.2"><defs><clipPath id="8292a602b3"><path d="M 89 85 L 286 85 L 286 361.96875 L 89 361.96875 Z M 89 85 "/></clipPath><clipPath id="618b7c2957"><path d="M 16 13.21875 L 359 13.21875 L 359 311 L 16 311 Z M 16 13.21875 "/></clipPath></defs><g id="1a8d4f23f4"><g clip-rule="nonzero" clip-path="url(#8292a602b3)"><path style=" stroke:none;fill-rule:evenodd;fill:#1893f8;fill-opacity:1;" d="M 249.363281 108.242188 C 226.679688 89.558594 196.882812 82.210938 167.503906 87.8125 C 128.394531 95.4375 97.492188 127.015625 90.652344 166.398438 C 85.230469 197.628906 94.488281 228.574219 116.097656 251.273438 C 125.339844 260.988281 130.414062 272.886719 130.414062 284.746094 L 130.414062 289.984375 C 130.414062 295.023438 134.488281 299.078125 139.511719 299.078125 L 234.664062 299.078125 C 239.703125 299.078125 243.761719 295.023438 243.761719 289.984375 L 243.761719 284.746094 C 243.761719 272.867188 248.835938 260.988281 258.058594 251.3125 C 275.46875 233.066406 285.054688 209.089844 285.054688 183.878906 C 285.054688 154.519531 272.046875 126.960938 249.363281 108.242188 M 220.878906 343.554688 L 153.316406 343.554688 C 148.277344 343.554688 144.222656 347.613281 144.222656 352.652344 C 144.222656 357.671875 148.277344 361.746094 153.316406 361.746094 L 220.878906 361.746094 C 225.898438 361.746094 229.972656 357.671875 229.972656 352.652344 C 229.972656 347.613281 225.898438 343.554688 220.878906 343.554688 M 230.5 313.285156 L 143.695312 313.285156 C 138.671875 313.285156 134.597656 317.34375 134.597656 322.382812 C 134.597656 327.402344 138.671875 331.476562 143.695312 331.476562 L 230.5 331.476562 C 235.519531 331.476562 239.59375 327.402344 239.59375 322.382812 C 239.59375 317.34375 235.519531 313.285156 230.5 313.285156 "/></g><g clip-rule="nonzero" clip-path="url(#618b7c2957)"><path style=" stroke:none;fill-rule:evenodd;fill:#1893f8;fill-opacity:1;" d="M 279.238281 101.496094 C 281.566406 101.496094 283.894531 100.605469 285.675781 98.839844 L 311.164062 73.335938 C 314.710938 69.789062 314.710938 64.023438 311.164062 60.476562 C 307.617188 56.929688 301.847656 56.929688 298.300781 60.476562 L 272.796875 85.960938 C 269.25 89.527344 269.25 95.273438 272.796875 98.839844 C 274.582031 100.605469 276.910156 101.496094 279.238281 101.496094 Z M 89.078125 269.679688 L 63.632812 295.148438 C 60.082031 298.695312 60.082031 304.460938 63.632812 308.007812 C 65.414062 309.789062 67.722656 310.683594 70.050781 310.683594 C 72.378906 310.683594 74.710938 309.789062 76.492188 308.007812 L 101.941406 282.539062 C 105.503906 278.976562 105.503906 273.226562 101.941406 269.679688 C 98.394531 266.113281 92.644531 266.113281 89.078125 269.679688 Z M 89.097656 98.839844 C 90.878906 100.605469 93.210938 101.496094 95.539062 101.496094 C 97.867188 101.496094 100.195312 100.605469 101.957031 98.839844 C 105.523438 95.273438 105.523438 89.527344 101.957031 85.960938 L 76.492188 60.476562 C 72.945312 56.929688 67.179688 56.929688 63.632812 60.476562 C 60.082031 64.023438 60.082031 69.789062 63.632812 73.335938 Z M 280.84375 264.847656 C 277.296875 261.28125 271.550781 261.28125 267.984375 264.847656 C 264.4375 268.394531 264.4375 274.144531 267.984375 277.707031 L 293.449219 303.15625 C 295.234375 304.941406 297.542969 305.832031 299.871094 305.832031 C 302.199219 305.832031 304.527344 304.941406 306.3125 303.15625 C 309.859375 299.609375 309.859375 293.84375 306.3125 290.296875 Z M 187.386719 67.425781 C 192.425781 67.425781 196.484375 63.351562 196.484375 58.328125 L 196.484375 22.3125 C 196.484375 17.292969 192.425781 13.21875 187.386719 13.21875 C 182.367188 13.21875 178.292969 17.292969 178.292969 22.3125 L 178.292969 58.328125 C 178.292969 63.351562 182.367188 67.425781 187.386719 67.425781 Z M 70.707031 184.25 C 70.707031 179.210938 66.632812 175.15625 61.613281 175.15625 L 25.46875 175.15625 C 20.445312 175.15625 16.371094 179.210938 16.371094 184.25 C 16.371094 189.273438 20.445312 193.347656 25.46875 193.347656 L 61.613281 193.347656 C 66.632812 193.347656 70.707031 189.273438 70.707031 184.25 Z M 349.308594 175.15625 L 313.835938 175.15625 C 308.816406 175.15625 304.742188 179.210938 304.742188 184.25 C 304.742188 189.273438 308.816406 193.347656 313.835938 193.347656 L 349.308594 193.347656 C 354.328125 193.347656 358.402344 189.273438 358.402344 184.25 C 358.402344 179.210938 354.328125 175.15625 349.308594 175.15625 Z M 349.308594 175.15625 "/></g></g></svg>