<svg xmlns="http://www.w3.org/2000/svg" xmlns:xlink="http://www.w3.org/1999/xlink" width="500" zoomAndPan="magnify" viewBox="0 0 375 374.999991" height="500" preserveAspectRatio="xMidYMid meet" version="1.2"><g id="9a005181ce"><path style=" stroke:none;fill-rule:nonzero;fill:#1893f8;fill-opacity:1;" d="M 192.335938 204.589844 C 181.464844 204.921875 169.664062 205.222656 154.429688 205.527344 C 152.859375 211.640625 153.121094 217.792969 154.558594 223.964844 C 169.808594 224.296875 181.640625 224.597656 192.550781 224.90625 C 192.089844 221.457031 191.8125 217.984375 191.765625 214.449219 C 191.75 211.15625 191.898438 207.863281 192.335938 204.589844 Z M 62.757812 80.769531 C 70.570312 87.882812 84.726562 98.777344 94.488281 102.785156 C 100.03125 96.566406 105.992188 91.09375 112.210938 86.683594 C 122.394531 60.097656 89.925781 45.679688 68.5 73.261719 C 66.8125 75.417969 64.875 77.976562 62.757812 80.769531 Z M 44.773438 106.472656 C 52.871094 113.480469 67.050781 123.171875 77.007812 127.253906 C 80.5625 121.078125 84.511719 115.121094 88.902344 109.507812 C 78.421875 104.441406 66.359375 95.28125 57.714844 87.597656 C 53.527344 93.378906 49.007812 99.839844 44.773438 106.472656 Z M 29.699219 180.539062 C 24.988281 197.214844 32.972656 213.464844 49.753906 218.617188 C 55.121094 220.125 52.832031 228.261719 47.484375 226.753906 C 26.183594 220.773438 15.667969 199.085938 21.554688 178.246094 C 23.386719 171.75 31.59375 174.273438 29.699219 180.539062 Z M 73.949219 153.328125 C 87.023438 162.164062 112.640625 169.933594 128.046875 173.640625 C 128.902344 171.988281 130.886719 167.96875 132.066406 166.707031 C 125.535156 159.132812 112.882812 132.25 110.617188 122.671875 C 104.742188 97.90625 137.070312 86.144531 148.761719 105.851562 C 152.972656 112.941406 155.945312 121.195312 159.039062 128.875 C 165.34375 117.636719 168.1875 102.863281 158.515625 92.632812 C 148.261719 81.785156 131.894531 84.117188 120.242188 91.476562 C 99.640625 104.441406 82.65625 130.0625 73.949219 153.328125 Z M 72.972656 134.6875 C 62.257812 130.039062 49.253906 121.164062 40.285156 113.71875 C 33.589844 124.933594 28.238281 135.972656 27.058594 144.117188 C 24.335938 162.820312 47.460938 173.882812 62.125 162.648438 C 64.695312 152.980469 68.453125 143.59375 72.972656 134.6875 Z M 50.054688 319.941406 L 25.003906 309.316406 C 20.222656 323.652344 20.402344 333.296875 26.789062 339.0625 C 32.726562 344.429688 40.800781 350.105469 48.761719 351.414062 C 53.886719 352.265625 59.691406 351.328125 58.691406 345.105469 C 58.253906 342.445312 56.835938 339.042969 54.566406 334.746094 C 51.871094 329.671875 50.316406 324.699219 50.054688 319.941406 Z M 27.929688 301.386719 L 51.101562 311.210938 C 51.695312 309.378906 52.496094 307.585938 53.566406 305.859375 C 56.207031 301.542969 63.910156 290.496094 73.535156 277.230469 C 81.277344 266.5625 90.363281 254.320312 99.132812 242.859375 C 90.316406 234.675781 80.695312 225.789062 71.332031 218.261719 C 56.714844 244.476562 39.125 273.699219 27.929688 301.386719 Z M 175.574219 323.035156 L 153.710938 335.628906 C 159.886719 345.753906 167.152344 350.882812 176.691406 350.296875 C 190.464844 349.402344 198.777344 345.609375 202.335938 341.195312 C 204.015625 339.148438 204.761719 336.699219 203.121094 334.390625 C 201.265625 331.703125 196.902344 329.679688 190.25 329.265625 C 184.675781 328.925781 179.632812 326.855469 175.574219 323.035156 Z M 149.761719 328.164062 L 170.449219 316.246094 C 169.316406 314.152344 168.484375 311.90625 167.894531 309.632812 C 164.050781 294.398438 162.742188 276.269531 161.171875 260.601562 C 158.878906 237.515625 131.058594 211.550781 115.9375 193.304688 C 112.464844 189.15625 118.625 183.789062 122.265625 187.761719 C 122.917969 185.621094 123.660156 183.503906 124.46875 181.480469 C 107.753906 177.328125 86.011719 170.441406 71.203125 161.53125 C 67.074219 175.304688 64.242188 194.21875 71.878906 206.335938 C 74.914062 211.140625 85.082031 218.945312 89.640625 222.988281 C 110.894531 241.796875 129.292969 258.101562 133.304688 274.90625 C 138.609375 297.246094 143.71875 315.292969 149.761719 328.164062 Z M 186.398438 184.289062 L 194.296875 166.304688 C 180.132812 159.824219 162.921875 151.292969 158.1875 145.726562 C 151.988281 138.484375 147.316406 120 141.488281 110.136719 C 134.765625 98.835938 115.167969 105.203125 118.855469 120.722656 C 120.640625 128.253906 132.6875 153.609375 137.382812 159.832031 C 144.984375 169.933594 174.003906 179.183594 186.398438 184.289062 Z M 201.980469 169.777344 L 194.214844 187.523438 L 207.109375 192.828125 C 222.75 198.152344 226.839844 183.75 215.898438 176.375 C 212.21875 173.859375 206.238281 171.679688 201.980469 169.777344 Z M 306.53125 289.0625 C 300.964844 289.0625 300.964844 280.59375 306.53125 280.59375 C 319.234375 280.59375 329.511719 290.894531 329.511719 303.574219 C 329.511719 309.140625 321.042969 309.140625 321.042969 303.574219 C 321.042969 295.5625 314.539062 289.0625 306.53125 289.0625 Z M 270.457031 221.480469 L 273.800781 221.585938 C 283.992188 234.503906 280.082031 250.632812 266.949219 259.554688 C 265.03125 260.863281 262.40625 260.363281 261.097656 258.441406 C 259.980469 256.800781 260.179688 254.683594 261.429688 253.289062 C 253.183594 255.714844 248.832031 263.914062 247.441406 271.859375 C 245.429688 283.40625 251.175781 297.148438 262.34375 301.902344 C 262.5 298 263.152344 294.183594 264.308594 290.449219 C 265.925781 285.144531 274 287.632812 272.382812 292.9375 C 268.480469 305.507812 271.882812 319.472656 281.242188 328.855469 C 295.148438 342.734375 317.925781 342.734375 331.828125 328.855469 C 338.289062 322.375 342.285156 313.453125 342.285156 303.566406 C 342.285156 295.300781 339.488281 287.378906 334.253906 280.957031 C 332.183594 278.402344 333.707031 274.628906 336.871094 274.128906 C 358.058594 265.859375 356.6875 234.460938 334.277344 229.214844 C 328.867188 227.96875 330.78125 219.722656 336.195312 220.988281 C 340.011719 221.878906 343.390625 223.34375 346.316406 225.246094 C 359.152344 218.023438 355.203125 197.507812 338.441406 198.53125 C 335.539062 198.816406 333.183594 196.089844 333.945312 193.226562 C 340.734375 168.085938 317.839844 151.179688 295.800781 160.339844 C 280.171875 166.84375 274.675781 186.804688 285.023438 200.253906 C 287.269531 202.964844 285.371094 207.191406 281.75 207.191406 L 270.464844 207.191406 L 270.464844 221.480469 Z M 185.4375 97.789062 C 180.988281 94.363281 171.734375 83.496094 167.261719 78.804688 C 165.691406 77.320312 165.492188 74.855469 166.847656 73.132812 L 179.527344 57.027344 C 180.8125 55.371094 183.167969 54.910156 185.023438 56.027344 L 205.144531 68.230469 C 206.523438 64.0625 207.023438 60.246094 206.476562 56.964844 C 205.253906 49.652344 200.863281 34.949219 194.539062 30.515625 C 183.105469 22.53125 161.019531 23.292969 151.71875 34.402344 C 142.027344 45.988281 135.160156 64.035156 121.519531 70.347656 C 122.351562 73.59375 122.648438 77.113281 122.257812 80.800781 C 136.398438 74.402344 153.574219 75.101562 164.660156 86.84375 C 170.332031 92.847656 173.128906 100.617188 173.234375 108.777344 C 177.609375 105.320312 181.710938 101.609375 185.4375 97.789062 Z M 201.804688 75.941406 C 198.246094 74.632812 187.816406 67.558594 183.867188 65.164062 L 175.769531 75.464844 L 191.066406 91.523438 C 195.476562 87.382812 201.003906 77.429688 201.804688 75.941406 Z M 256.300781 125.980469 C 251.066406 127.789062 248.316406 119.832031 253.550781 118.015625 C 257.785156 116.550781 262.476562 117.359375 266.207031 119.785156 C 267.933594 115.703125 271.40625 112.386719 275.746094 111.253906 C 281.113281 109.839844 283.253906 118.023438 277.886719 119.414062 C 276.492188 119.785156 275.070312 120.902344 274.175781 122.6875 C 273.34375 124.34375 273 126.613281 273.546875 129.429688 C 274.570312 134.402344 267.457031 136.460938 265.515625 131.871094 C 264.046875 128.453125 260.441406 124.542969 256.300781 125.980469 Z M 349.980469 104.949219 C 355.21875 106.757812 352.46875 114.726562 347.234375 112.933594 C 343.085938 111.492188 339.488281 115.375 338.027344 118.824219 C 336.085938 123.363281 329.058594 121.441406 330.019531 116.25 C 330.675781 112.625 329.820312 107.460938 325.65625 106.367188 C 320.265625 104.949219 322.421875 96.789062 327.796875 98.183594 C 332.136719 99.335938 335.585938 102.632812 337.332031 106.710938 C 341.027344 104.3125 345.746094 103.488281 349.980469 104.949219 Z M 201.265625 281.289062 C 196.03125 283.097656 193.28125 275.136719 198.515625 273.320312 C 202.75 271.859375 207.460938 272.664062 211.171875 275.089844 C 212.898438 271.011719 216.371094 267.691406 220.710938 266.5625 C 226.078125 265.144531 228.21875 273.328125 222.851562 274.722656 C 218.617188 275.835938 217.808594 281.09375 218.511719 284.738281 C 219.140625 289.996094 212.359375 291.589844 210.480469 287.175781 C 209.011719 283.757812 205.40625 279.847656 201.265625 281.289062 Z M 322.851562 241.011719 C 328.109375 242.820312 325.363281 250.789062 320.128906 248.976562 C 315.964844 247.539062 312.382812 251.441406 310.921875 254.867188 C 308.980469 259.425781 301.953125 257.484375 302.890625 252.335938 C 303.570312 248.707031 302.738281 243.519531 298.527344 242.402344 C 293.160156 241.011719 295.316406 232.828125 300.691406 234.242188 C 305.007812 235.375 308.480469 238.691406 310.226562 242.773438 C 313.929688 240.355469 318.640625 239.546875 322.851562 241.011719 Z M 255.054688 226.582031 C 257.757812 218.664062 257.800781 210.847656 255.078125 202.902344 C 234.058594 203.34375 219.394531 203.773438 204.730469 204.210938 L 200.910156 204.34375 C 200.386719 207.683594 200.171875 211.019531 200.210938 214.359375 C 200.257812 217.914062 200.582031 221.519531 201.105469 225.160156 L 204.730469 225.265625 C 219.394531 225.714844 234.039062 226.144531 255.054688 226.582031 Z M 255.054688 226.582031 "/></g></svg>