<svg xmlns="http://www.w3.org/2000/svg" xmlns:xlink="http://www.w3.org/1999/xlink" width="500" zoomAndPan="magnify" viewBox="0 0 375 374.999991" height="500" preserveAspectRatio="xMidYMid meet" version="1.2"><defs><clipPath id="336db3968b"><path d="M 39.5625 18.429688 L 335.0625 18.429688 L 335.0625 103 L 39.5625 103 Z M 39.5625 18.429688 "/></clipPath><clipPath id="fc400b95bd"><path d="M 60 124 L 315 124 L 315 356.679688 L 60 356.679688 Z M 60 124 "/></clipPath></defs><g id="2dfbb6e8e3"><g clip-rule="nonzero" clip-path="url(#336db3968b)"><path style=" stroke:none;fill-rule:nonzero;fill:#ff6347;fill-opacity:1;" d="M 324.511719 59.855469 L 250.636719 59.855469 L 250.636719 28.984375 C 250.636719 23.179688 245.886719 18.429688 240.082031 18.429688 L 134.546875 18.429688 C 128.742188 18.429688 123.992188 23.179688 123.992188 28.984375 L 123.992188 59.855469 L 50.117188 59.855469 C 44.3125 59.855469 39.5625 64.601562 39.5625 70.40625 L 39.5625 91.515625 C 39.5625 97.320312 44.3125 102.066406 50.117188 102.066406 L 324.511719 102.066406 C 330.3125 102.066406 335.0625 97.320312 335.0625 91.515625 L 335.0625 70.40625 C 335.0625 64.601562 330.3125 59.855469 324.511719 59.855469 Z M 324.511719 59.855469 "/></g><g clip-rule="nonzero" clip-path="url(#fc400b95bd)"><path style=" stroke:none;fill-rule:nonzero;fill:#ff6347;fill-opacity:1;" d="M 86 346.910156 C 86.527344 352.1875 91.011719 356.144531 96.550781 356.144531 L 278.339844 356.144531 C 283.613281 356.144531 288.101562 352.1875 288.890625 346.910156 L 314.21875 124.230469 L 60.671875 124.230469 Z M 229.527344 312.613281 L 247.996094 165.125 C 248.789062 159.320312 254.066406 155.363281 259.871094 155.890625 C 265.671875 156.683594 269.632812 161.960938 269.105469 167.765625 L 250.636719 315.25 C 249.84375 320.527344 245.359375 324.484375 240.082031 324.484375 C 239.554688 324.484375 239.289062 324.484375 238.761719 324.484375 C 232.957031 323.691406 229 318.417969 229.527344 312.613281 Z M 176.761719 166.445312 C 176.761719 160.640625 181.507812 155.890625 187.3125 155.890625 C 193.117188 155.890625 197.867188 160.640625 197.867188 166.445312 L 197.867188 313.929688 C 197.867188 319.734375 193.117188 324.484375 187.3125 324.484375 C 181.507812 324.484375 176.761719 319.734375 176.761719 313.929688 Z M 114.757812 155.890625 C 120.5625 155.101562 125.839844 159.320312 126.628906 165.125 L 145.097656 312.613281 C 145.890625 318.417969 141.667969 323.691406 135.863281 324.484375 C 135.335938 324.484375 135.074219 324.484375 134.546875 324.484375 C 129.269531 324.484375 124.785156 320.527344 123.992188 315.25 L 105.523438 167.765625 C 104.996094 161.960938 108.953125 156.683594 114.757812 155.890625 Z M 114.757812 155.890625 "/></g></g></svg>