<svg xmlns="http://www.w3.org/2000/svg" xmlns:xlink="http://www.w3.org/1999/xlink" width="500" zoomAndPan="magnify" viewBox="0 0 375 374.999991" height="500" preserveAspectRatio="xMidYMid meet" version="1.2"><defs><clipPath id="5ab59f3fbb"><path d="M 19.539062 29 L 355 29 L 355 349 L 19.539062 349 Z M 19.539062 29 "/></clipPath></defs><g id="30de4beb05"><g clip-rule="nonzero" clip-path="url(#5ab59f3fbb)"><path style=" stroke:none;fill-rule:nonzero;fill:#ff6347;fill-opacity:1;" d="M 19.839844 80.269531 C 19.886719 80.523438 19.933594 80.777344 19.988281 81.027344 L 20.167969 81.785156 L 20.34375 82.535156 C 20.410156 82.785156 20.457031 83.039062 20.53125 83.289062 L 20.933594 84.785156 L 21.027344 85.160156 L 21.140625 85.535156 L 21.363281 86.273438 C 21.511719 86.769531 21.652344 87.265625 21.820312 87.757812 L 22.308594 89.226562 L 22.839844 90.648438 L 23.113281 91.378906 L 23.394531 92.097656 L 23.683594 92.816406 C 23.777344 93.050781 23.871094 93.292969 23.972656 93.527344 L 24.589844 94.949219 C 24.691406 95.191406 24.796875 95.425781 24.90625 95.660156 L 25.234375 96.359375 L 25.550781 97.0625 L 25.898438 97.753906 C 26.132812 98.210938 26.355469 98.6875 26.589844 99.136719 L 27.308594 100.503906 L 27.488281 100.839844 L 27.675781 101.175781 L 28.058594 101.859375 C 28.542969 102.792969 29.085938 103.632812 29.609375 104.523438 C 30.132812 105.410156 30.695312 106.269531 31.265625 107.128906 C 31.835938 107.992188 32.414062 108.832031 32.992188 109.683594 C 33.574219 110.535156 34.191406 111.355469 34.816406 112.167969 C 35.125 112.582031 35.433594 112.992188 35.753906 113.394531 L 36.6875 114.609375 L 37.621094 115.804688 L 37.863281 116.105469 L 38.117188 116.394531 L 38.613281 116.984375 C 39.949219 118.554688 41.316406 120.089844 42.734375 121.574219 C 44.15625 123.0625 45.597656 124.527344 47.082031 125.949219 C 48.570312 127.371094 50.082031 128.753906 51.625 130.101562 C 54.742188 132.800781 57.949219 135.363281 61.246094 137.796875 C 64.542969 140.226562 67.945312 142.523438 71.445312 144.683594 C 72.652344 145.433594 73.859375 146.152344 75.082031 146.863281 C 75.46875 145.179688 76.066406 143.570312 76.867188 142.039062 C 76.035156 141.273438 75.203125 140.507812 74.390625 139.722656 C 71.378906 136.824219 68.484375 133.816406 65.707031 130.699219 C 62.902344 127.578125 60.285156 124.351562 57.789062 121.015625 C 56.535156 119.339844 55.328125 117.648438 54.152344 115.929688 C 52.972656 114.207031 51.851562 112.449219 50.765625 110.664062 C 49.683594 108.878906 48.644531 107.082031 47.664062 105.242188 L 47.289062 104.558594 L 47.101562 104.214844 L 46.925781 103.867188 L 46.214844 102.476562 L 45.53125 101.074219 C 45.296875 100.605469 45.082031 100.136719 44.859375 99.660156 C 44.417969 98.726562 44.007812 97.789062 43.585938 96.855469 C 43.164062 95.921875 42.78125 94.941406 42.410156 93.96875 C 42.035156 92.996094 41.679688 92.011719 41.324219 91.042969 C 40.96875 90.070312 40.652344 89.070312 40.390625 88.078125 L 40.15625 87.328125 L 40.015625 86.910156 L 39.914062 86.535156 L 39.480469 85.039062 C 39.351562 84.535156 39.230469 84.03125 39.097656 83.523438 L 38.902344 82.765625 L 38.734375 82.011719 L 38.558594 81.253906 C 38.5 81 38.445312 80.746094 38.398438 80.484375 L 38.089844 78.960938 C 38.042969 78.710938 37.996094 78.449219 37.957031 78.195312 L 37.828125 77.429688 L 37.695312 76.664062 C 37.648438 76.402344 37.621094 76.148438 37.585938 75.886719 C 37.507812 75.371094 37.433594 74.867188 37.371094 74.351562 L 37.191406 72.800781 C 37.125 72.289062 37.097656 71.773438 37.050781 71.257812 L 36.984375 70.484375 L 36.984375 69.707031 L 36.910156 68.15625 C 36.910156 67.894531 36.910156 67.632812 36.910156 67.378906 L 36.910156 65.828125 C 36.910156 65.566406 36.910156 65.304688 36.910156 65.042969 L 36.910156 63.488281 L 36.910156 65.042969 C 36.910156 65.304688 36.910156 65.566406 36.910156 65.816406 L 36.957031 66.59375 L 36.957031 67.371094 C 36.957031 67.632812 36.957031 67.882812 36.957031 68.144531 L 37.210938 69.714844 L 37.210938 70.484375 L 37.304688 71.257812 C 37.359375 71.773438 37.417969 72.289062 37.492188 72.792969 L 37.714844 74.324219 C 37.800781 74.839844 37.894531 75.34375 37.988281 75.847656 C 38.03125 76.101562 38.070312 76.363281 38.117188 76.617188 L 38.277344 77.371094 L 38.425781 78.128906 C 38.480469 78.382812 38.527344 78.636719 38.59375 78.886719 L 39.003906 80.363281 C 39.0625 80.617188 39.128906 80.859375 39.191406 81.113281 L 39.390625 81.859375 L 39.585938 82.609375 C 39.652344 82.859375 39.726562 83.105469 39.800781 83.347656 C 39.941406 83.84375 40.082031 84.339844 40.230469 84.832031 L 40.707031 86.300781 L 40.820312 86.675781 L 40.949219 87.039062 L 41.203125 87.769531 C 41.53125 88.703125 41.902344 89.703125 42.257812 90.667969 C 42.613281 91.628906 43.015625 92.535156 43.425781 93.527344 C 43.839844 94.519531 44.257812 95.398438 44.691406 96.332031 C 45.121094 97.265625 45.570312 98.203125 46.046875 99.136719 C 46.269531 99.59375 46.503906 100.070312 46.746094 100.503906 L 47.496094 101.867188 L 48.242188 103.214844 L 48.617188 103.886719 L 49.007812 104.550781 C 50.039062 106.328125 51.121094 108.085938 52.253906 109.796875 C 53.382812 111.507812 54.542969 113.207031 55.757812 114.863281 C 56.972656 116.515625 58.226562 118.152344 59.5 119.75 C 62.070312 122.957031 64.789062 126.042969 67.613281 129.027344 C 70.4375 132.007812 73.390625 134.859375 76.4375 137.597656 C 77.140625 138.234375 77.851562 138.851562 78.570312 139.46875 C 79.054688 138.804688 79.582031 138.175781 80.144531 137.578125 C 80.707031 136.980469 81.304688 136.417969 81.9375 135.890625 C 82.566406 135.367188 83.230469 134.882812 83.921875 134.4375 C 84.613281 133.992188 85.328125 133.59375 86.066406 133.238281 C 86.808594 132.878906 87.566406 132.570312 88.34375 132.308594 C 89.125 132.042969 89.914062 131.828125 90.71875 131.660156 C 91.523438 131.496094 92.335938 131.378906 93.152344 131.308594 C 93.972656 131.242188 94.792969 131.226562 95.613281 131.257812 C 96.433594 131.289062 97.25 131.375 98.0625 131.507812 C 98.871094 131.640625 99.671875 131.820312 100.460938 132.050781 C 101.25 132.28125 102.019531 132.558594 102.773438 132.882812 C 103.53125 133.210938 104.261719 133.578125 104.96875 133.996094 C 105.679688 134.410156 106.359375 134.867188 107.015625 135.363281 C 107.667969 135.863281 108.289062 136.398438 108.875 136.972656 C 109.464844 137.546875 110.015625 138.152344 110.527344 138.792969 C 111.042969 139.4375 111.515625 140.105469 111.945312 140.804688 C 112.460938 139.628906 113.082031 138.511719 113.816406 137.457031 C 116.292969 133.988281 121.621094 131.941406 125.398438 130.082031 C 132.164062 126.867188 139.082031 124.019531 146.152344 121.546875 C 175.183594 98.222656 251.925781 38.472656 286.460938 30.5625 C 305.160156 26.28125 307.910156 42.714844 298.726562 63.023438 C 312.144531 59.28125 325.941406 56.429688 339.863281 57.019531 C 344.058594 57.199219 348.621094 57.871094 351.484375 60.9375 C 355.503906 65.230469 354.382812 72.15625 352.15625 77.597656 C 348.417969 86.710938 342.414062 94.734375 335.582031 101.820312 C 332.945312 104.527344 330.1875 107.109375 327.3125 109.566406 C 324.441406 112.019531 321.457031 114.339844 318.371094 116.519531 C 315.28125 118.699219 312.097656 120.730469 308.824219 122.617188 C 305.546875 124.503906 302.191406 126.234375 298.757812 127.8125 C 295.320312 129.386719 291.820312 130.804688 288.253906 132.058594 C 284.6875 133.3125 281.070312 134.398438 277.40625 135.320312 C 273.738281 136.238281 270.039062 136.988281 266.304688 137.566406 C 262.566406 138.148438 258.8125 138.554688 255.039062 138.785156 C 221.972656 140.703125 188.664062 129.121094 156.042969 134.792969 C 177.183594 132.25 197.757812 142.394531 215.4375 154.25 C 237.199219 168.824219 256.480469 186.152344 273.289062 206.238281 C 275.90625 209.371094 278.550781 212.78125 278.898438 216.867188 C 279.636719 224.730469 271.09375 230.890625 263.191406 230.78125 C 255.292969 230.667969 248.234375 226.160156 241.605469 221.832031 L 228.515625 213.25 L 230.386719 232.601562 L 261.136719 303.652344 L 305.597656 338.019531 L 337.910156 348.539062 L 305.355469 338.617188 L 305.300781 338.617188 L 259.949219 304.898438 L 259.714844 304.738281 L 259.621094 304.523438 L 227.339844 233.6875 L 227.246094 233.472656 L 227.246094 233.199219 L 224.648438 210.761719 L 188.820312 187.335938 L 187.277344 217.617188 L 203.40625 277.925781 L 234.828125 310.648438 L 259.320312 322.78125 L 234.472656 311.011719 L 202.265625 278.738281 L 202.144531 278.617188 L 202.144531 278.441406 L 184.765625 218.074219 L 184.707031 217.886719 L 184.707031 217.671875 L 185.738281 185.269531 L 173.9375 177.546875 C 171.796875 176.144531 169.402344 174.6875 166.871094 175.023438 C 163.71875 175.441406 161.664062 178.40625 159.390625 180.632812 C 152.574219 187.175781 141.964844 187.847656 132.597656 186.4375 C 130.386719 186.121094 128.207031 185.667969 126.054688 185.082031 L 124.390625 217.597656 L 140.515625 277.90625 L 171.9375 310.628906 L 196.394531 322.78125 L 171.589844 311.011719 L 139.394531 278.738281 L 139.273438 278.617188 L 139.214844 278.441406 L 121.835938 218.074219 L 121.789062 217.886719 L 121.789062 217.671875 L 122.863281 184.015625 C 120.195312 183.0625 117.722656 181.738281 115.453125 180.042969 C 115.226562 179.875 115.003906 179.6875 114.777344 179.5 L 113.320312 192.101562 L 113.320312 192.28125 L 113.253906 192.421875 L 91.96875 239.164062 L 91.902344 239.304688 L 91.789062 239.390625 L 61.871094 261.621094 L 40.371094 268.164062 L 61.519531 261.210938 L 90.84375 238.53125 L 111.105469 191.71875 L 112.488281 177.386719 C 111.144531 175.9375 110.070312 174.308594 109.269531 172.5 C 108.46875 170.691406 107.984375 168.804688 107.8125 166.832031 C 107.042969 167.488281 106.226562 168.078125 105.367188 168.609375 C 104.507812 169.140625 103.613281 169.605469 102.683594 170.003906 C 101.753906 170.398438 100.800781 170.722656 99.820312 170.976562 C 98.84375 171.230469 97.851562 171.410156 96.847656 171.511719 C 95.839844 171.617188 94.832031 171.644531 93.824219 171.597656 C 92.8125 171.550781 91.8125 171.429688 90.824219 171.230469 C 89.832031 171.03125 88.859375 170.761719 87.910156 170.417969 C 86.960938 170.074219 86.039062 169.660156 85.152344 169.179688 C 68.480469 199.65625 51.808594 230.128906 35.136719 260.59375 L 80.738281 166.167969 C 80.132812 165.640625 79.589844 165.054688 79.113281 164.410156 C 78.804688 163.988281 78.53125 163.546875 78.289062 163.082031 C 77.082031 161.378906 76.164062 159.53125 75.535156 157.539062 C 74.90625 155.546875 74.597656 153.503906 74.605469 151.417969 C 74.605469 150.996094 74.605469 150.585938 74.664062 150.164062 C 73.066406 149.183594 71.488281 148.175781 69.921875 147.132812 C 66.449219 144.808594 63.074219 142.355469 59.789062 139.777344 C 56.515625 137.195312 53.335938 134.484375 50.289062 131.644531 C 48.765625 130.214844 47.277344 128.765625 45.8125 127.269531 C 44.34375 125.773438 42.941406 124.25 41.558594 122.695312 C 40.175781 121.144531 38.835938 119.535156 37.546875 117.902344 L 37.0625 117.292969 L 36.816406 116.984375 L 36.585938 116.675781 L 35.648438 115.433594 L 34.714844 114.171875 C 34.40625 113.75 34.105469 113.320312 33.78125 112.898438 C 33.171875 112.046875 32.601562 111.179688 32.023438 110.320312 C 31.441406 109.457031 30.890625 108.570312 30.359375 107.671875 C 29.824219 106.773438 29.292969 105.886719 28.769531 104.988281 C 28.246094 104.09375 27.757812 103.167969 27.292969 102.242188 L 26.9375 101.550781 L 26.757812 101.203125 L 26.589844 100.847656 L 25.90625 99.445312 C 25.683594 98.976562 25.46875 98.511719 25.253906 98.035156 C 25.148438 97.789062 25.039062 97.558594 24.933594 97.324219 L 24.636719 96.605469 L 24.328125 95.882812 C 24.226562 95.640625 24.121094 95.40625 24.027344 95.164062 L 23.46875 93.714844 C 23.363281 93.472656 23.28125 93.230469 23.195312 92.984375 L 22.925781 92.246094 L 22.664062 91.519531 C 22.578125 91.273438 22.503906 91.023438 22.421875 90.78125 C 22.261719 90.285156 22.09375 89.796875 21.933594 89.300781 L 21.496094 87.804688 C 21.34375 87.3125 21.214844 86.804688 21.082031 86.3125 L 20.886719 85.5625 L 20.785156 85.179688 L 20.699219 84.804688 L 20.355469 83.289062 C 20.289062 83.039062 20.242188 82.785156 20.195312 82.535156 L 20.035156 81.765625 L 19.886719 81.007812 C 19.839844 80.746094 19.800781 80.496094 19.757812 80.242188 L 19.503906 78.710938 Z M 19.839844 80.269531 "/></g></g></svg>