<svg xmlns="http://www.w3.org/2000/svg" xmlns:xlink="http://www.w3.org/1999/xlink" width="500" zoomAndPan="magnify" viewBox="0 0 375 374.999991" height="500" preserveAspectRatio="xMidYMid meet" version="1.2"><defs><clipPath id="906b039f27"><path d="M 19 81.742188 L 355.714844 81.742188 L 355.714844 293 L 19 293 Z M 19 81.742188 "/></clipPath></defs><g id="9d29a6c044"><rect x="0" width="375" y="0" height="374.999991" style="fill:#ffffff;fill-opacity:1;stroke:none;"/><rect x="0" width="375" y="0" height="374.999991" style="fill:#ffffff;fill-opacity:1;stroke:none;"/><g clip-rule="nonzero" clip-path="url(#906b039f27)"><path style=" stroke:none;fill-rule:nonzero;fill:#ff6347;fill-opacity:1;" d="M 28.566406 99.792969 L 36.886719 99.792969 C 37.597656 99.792969 38.285156 99.914062 38.953125 100.160156 C 39.621094 100.402344 40.226562 100.757812 40.765625 101.214844 C 41.308594 101.675781 41.753906 102.214844 42.105469 102.832031 C 42.457031 103.449219 42.691406 104.109375 42.804688 104.808594 L 71.882812 279.488281 C 72.039062 280.425781 72.273438 281.339844 72.585938 282.234375 C 72.902344 283.132812 73.296875 283.992188 73.761719 284.816406 C 74.230469 285.644531 74.765625 286.421875 75.371094 287.152344 C 75.976562 287.886719 76.644531 288.558594 77.367188 289.171875 C 78.09375 289.785156 78.863281 290.332031 79.683594 290.808594 C 80.507812 291.285156 81.363281 291.6875 82.253906 292.011719 C 83.144531 292.339844 84.058594 292.585938 84.992188 292.75 C 85.929688 292.914062 86.871094 292.996094 87.820312 292.992188 L 281.972656 292.992188 C 282.902344 292.992188 283.828125 292.910156 284.746094 292.75 C 285.664062 292.589844 286.5625 292.351562 287.441406 292.035156 C 288.316406 291.71875 289.160156 291.332031 289.96875 290.867188 C 290.78125 290.40625 291.542969 289.878906 292.261719 289.285156 C 292.980469 288.691406 293.644531 288.039062 294.25 287.332031 C 294.855469 286.621094 295.394531 285.867188 295.871094 285.0625 C 296.34375 284.261719 296.746094 283.425781 297.078125 282.550781 C 297.40625 281.679688 297.660156 280.785156 297.835938 279.871094 L 331.324219 104.640625 C 331.457031 103.957031 331.699219 103.3125 332.054688 102.710938 C 332.410156 102.109375 332.855469 101.585938 333.394531 101.140625 C 333.933594 100.695312 334.53125 100.355469 335.1875 100.117188 C 335.84375 99.878906 336.519531 99.761719 337.21875 99.761719 L 346.710938 99.761719 C 347.300781 99.761719 347.886719 99.703125 348.464844 99.589844 C 349.046875 99.472656 349.609375 99.300781 350.15625 99.074219 C 350.703125 98.847656 351.21875 98.570312 351.710938 98.242188 C 352.203125 97.914062 352.660156 97.542969 353.078125 97.125 C 353.496094 96.707031 353.867188 96.25 354.195312 95.757812 C 354.523438 95.269531 354.800781 94.75 355.027344 94.203125 C 355.253906 93.65625 355.425781 93.09375 355.539062 92.515625 C 355.65625 91.933594 355.714844 91.347656 355.714844 90.757812 C 355.714844 90.164062 355.65625 89.582031 355.539062 89 C 355.425781 88.421875 355.253906 87.859375 355.027344 87.3125 C 354.800781 86.765625 354.523438 86.246094 354.195312 85.753906 C 353.867188 85.261719 353.496094 84.808594 353.078125 84.390625 C 352.660156 83.972656 352.203125 83.597656 351.710938 83.269531 C 351.21875 82.941406 350.703125 82.664062 350.15625 82.4375 C 349.609375 82.210938 349.046875 82.042969 348.464844 81.925781 C 347.886719 81.8125 347.300781 81.753906 346.710938 81.753906 L 319.402344 81.753906 C 318.726562 81.753906 318.066406 81.867188 317.425781 82.097656 C 316.789062 82.328125 316.207031 82.660156 315.683594 83.09375 C 315.160156 83.527344 314.726562 84.035156 314.382812 84.617188 C 314.035156 85.203125 313.800781 85.828125 313.671875 86.496094 L 285.308594 234.953125 C 285.042969 236.347656 284.714844 237.730469 284.328125 239.097656 C 283.941406 240.464844 283.5 241.816406 282.996094 243.144531 C 282.492188 244.472656 281.933594 245.777344 281.316406 247.058594 C 280.703125 248.339844 280.03125 249.59375 279.308594 250.816406 C 278.585938 252.039062 277.8125 253.226562 276.984375 254.382812 C 276.15625 255.539062 275.285156 256.660156 274.359375 257.738281 C 273.4375 258.820312 272.46875 259.859375 271.457031 260.855469 C 270.445312 261.851562 269.390625 262.804688 268.296875 263.710938 C 267.199219 264.617188 266.066406 265.472656 264.898438 266.28125 C 263.730469 267.089844 262.527344 267.847656 261.292969 268.550781 C 260.058594 269.253906 258.796875 269.90625 257.507812 270.5 C 256.214844 271.09375 254.902344 271.632812 253.566406 272.117188 C 252.230469 272.597656 250.875 273.019531 249.5 273.386719 C 248.125 273.75 246.738281 274.054688 245.339844 274.300781 C 243.941406 274.546875 242.53125 274.730469 241.117188 274.851562 C 239.699219 274.976562 238.28125 275.039062 236.859375 275.039062 L 134.628906 275.039062 C 133.191406 275.042969 131.753906 274.980469 130.320312 274.855469 C 128.886719 274.734375 127.460938 274.546875 126.042969 274.296875 C 124.625 274.046875 123.222656 273.738281 121.832031 273.367188 C 120.441406 272.992188 119.070312 272.5625 117.71875 272.070312 C 116.367188 271.578125 115.039062 271.027344 113.734375 270.417969 C 112.429688 269.808594 111.15625 269.144531 109.910156 268.421875 C 108.664062 267.703125 107.453125 266.929688 106.273438 266.101562 C 105.097656 265.273438 103.957031 264.398438 102.855469 263.46875 C 101.753906 262.542969 100.695312 261.570312 99.679688 260.550781 C 98.664062 259.53125 97.695312 258.46875 96.773438 257.363281 C 95.851562 256.257812 94.980469 255.117188 94.15625 253.933594 C 93.335938 252.753906 92.566406 251.539062 91.851562 250.289062 C 91.136719 249.039062 90.476562 247.761719 89.871094 246.457031 C 89.269531 245.148438 88.722656 243.820312 88.238281 242.464844 C 87.75 241.109375 87.324219 239.738281 86.957031 238.347656 C 86.589844 236.953125 86.285156 235.550781 86.042969 234.132812 L 66.527344 121.191406 L 66.527344 121.082031 L 60.570312 86.621094 C 60.453125 85.9375 60.226562 85.296875 59.882812 84.695312 C 59.542969 84.097656 59.105469 83.574219 58.578125 83.128906 C 58.050781 82.679688 57.460938 82.339844 56.8125 82.105469 C 56.160156 81.867188 55.492188 81.75 54.800781 81.753906 L 28.566406 81.753906 C 27.976562 81.753906 27.390625 81.8125 26.8125 81.925781 C 26.230469 82.042969 25.667969 82.210938 25.121094 82.4375 C 24.578125 82.664062 24.058594 82.941406 23.566406 83.269531 C 23.074219 83.597656 22.621094 83.972656 22.203125 84.390625 C 21.785156 84.808594 21.410156 85.261719 21.082031 85.753906 C 20.753906 86.246094 20.476562 86.765625 20.25 87.3125 C 20.023438 87.859375 19.851562 88.421875 19.738281 89 C 19.621094 89.582031 19.5625 90.164062 19.5625 90.757812 C 19.5625 91.347656 19.621094 91.933594 19.738281 92.515625 C 19.851562 93.09375 20.023438 93.65625 20.25 94.203125 C 20.476562 94.75 20.753906 95.269531 21.082031 95.757812 C 21.410156 96.25 21.785156 96.707031 22.203125 97.125 C 22.621094 97.542969 23.074219 97.914062 23.566406 98.242188 C 24.058594 98.570312 24.578125 98.847656 25.121094 99.074219 C 25.667969 99.300781 26.230469 99.472656 26.8125 99.589844 C 27.390625 99.703125 27.976562 99.761719 28.566406 99.761719 Z M 28.566406 99.792969 "/></g><path style=" stroke:none;fill-rule:nonzero;fill:#ff6347;fill-opacity:1;" d="M 95.023438 144.488281 C 97.695312 144.488281 100.347656 144.722656 102.980469 145.183594 C 105.609375 145.644531 108.183594 146.332031 110.695312 147.238281 C 113.207031 148.144531 115.625 149.261719 117.945312 150.589844 C 120.265625 151.914062 122.453125 153.429688 124.507812 155.136719 C 127.558594 157.753906 130.953125 159.808594 134.683594 161.304688 C 138.417969 162.800781 142.289062 163.65625 146.304688 163.871094 L 146.382812 163.871094 C 148.570312 163.730469 150.726562 163.402344 152.851562 162.878906 C 154.980469 162.359375 157.042969 161.65625 159.046875 160.765625 C 161.050781 159.878906 162.957031 158.820312 164.773438 157.59375 C 166.585938 156.367188 168.277344 154.988281 169.847656 153.460938 C 177.535156 147.511719 186.265625 140.777344 199.261719 143.003906 C 203.359375 143.90625 207.210938 145.445312 210.804688 147.613281 C 214.402344 149.78125 217.554688 152.464844 220.269531 155.671875 C 225.523438 160.90625 228.789062 163.871094 234.675781 163.871094 C 236.761719 163.757812 238.773438 163.300781 240.703125 162.496094 C 242.632812 161.691406 244.371094 160.585938 245.917969 159.179688 C 250.660156 155.65625 255.820312 152.921875 261.398438 150.976562 C 265.933594 149.542969 270.574219 148.671875 275.320312 148.359375 C 280.066406 148.046875 284.78125 148.304688 289.460938 149.132812 L 294.367188 123.460938 C 289.605469 122.0625 284.746094 121.371094 279.785156 121.394531 C 274.824219 121.414062 269.972656 122.144531 265.222656 123.578125 C 260.710938 125.152344 256.542969 127.375 252.71875 130.25 C 250.183594 132.359375 247.371094 133.996094 244.28125 135.160156 C 241.191406 136.324219 238 136.949219 234.699219 137.039062 C 232.488281 136.945312 230.308594 136.617188 228.167969 136.050781 C 226.023438 135.488281 223.964844 134.703125 221.992188 133.695312 C 220.019531 132.6875 218.179688 131.480469 216.464844 130.078125 C 214.753906 128.671875 213.210938 127.101562 211.835938 125.363281 C 209.984375 123.046875 207.808594 121.09375 205.308594 119.5 C 202.8125 117.90625 200.121094 116.761719 197.242188 116.058594 C 189.777344 114.761719 184.984375 118.109375 177.175781 124.136719 C 175.089844 126.074219 172.855469 127.8125 170.460938 129.355469 C 168.070312 130.898438 165.5625 132.21875 162.941406 133.320312 C 160.316406 134.417969 157.617188 135.28125 154.839844 135.90625 C 152.0625 136.53125 149.253906 136.90625 146.414062 137.039062 L 146.292969 137.039062 C 143.699219 136.941406 141.132812 136.636719 138.589844 136.125 C 136.042969 135.609375 133.558594 134.894531 131.132812 133.976562 C 128.707031 133.058594 126.371094 131.949219 124.125 130.648438 C 121.875 129.351562 119.75 127.878906 117.742188 126.234375 C 116.210938 124.898438 114.574219 123.707031 112.832031 122.660156 C 111.089844 121.613281 109.269531 120.726562 107.371094 120 C 105.472656 119.273438 103.523438 118.71875 101.527344 118.335938 C 99.53125 117.949219 97.519531 117.746094 95.484375 117.714844 C 92.566406 117.882812 89.710938 118.40625 86.921875 119.285156 C 84.132812 120.167969 81.496094 121.378906 79.007812 122.917969 L 83.121094 146.703125 C 86.988281 145.417969 90.953125 144.679688 95.023438 144.488281 Z M 95.023438 144.488281 "/><path style=" stroke:none;fill-rule:nonzero;fill:#ff6347;fill-opacity:1;" d="M 265.246094 162.355469 C 260.746094 163.945312 256.589844 166.175781 252.78125 169.050781 C 250.238281 171.171875 247.414062 172.820312 244.316406 173.988281 C 241.21875 175.160156 238.011719 175.789062 234.699219 175.875 C 232.484375 175.78125 230.304688 175.449219 228.160156 174.886719 C 226.015625 174.320312 223.953125 173.53125 221.980469 172.523438 C 220.003906 171.511719 218.160156 170.304688 216.449219 168.894531 C 214.734375 167.488281 213.191406 165.910156 211.816406 164.167969 C 209.96875 161.855469 207.796875 159.898438 205.300781 158.300781 C 202.804688 156.703125 200.121094 155.546875 197.242188 154.835938 C 189.789062 153.5625 185.027344 156.917969 177.210938 162.957031 C 175.128906 164.894531 172.890625 166.636719 170.496094 168.179688 C 168.105469 169.726562 165.597656 171.046875 162.972656 172.148438 C 160.347656 173.25 157.644531 174.113281 154.867188 174.742188 C 152.089844 175.367188 149.28125 175.746094 146.4375 175.875 L 146.316406 175.875 C 143.722656 175.78125 141.152344 175.476562 138.605469 174.964844 C 136.058594 174.453125 133.570312 173.738281 131.144531 172.816406 C 128.714844 171.898438 126.375 170.789062 124.128906 169.492188 C 121.878906 168.191406 119.75 166.71875 117.742188 165.070312 C 116.207031 163.738281 114.570312 162.550781 112.828125 161.503906 C 111.085938 160.457031 109.265625 159.570312 107.367188 158.839844 C 105.472656 158.109375 103.527344 157.550781 101.53125 157.160156 C 99.539062 156.769531 97.523438 156.554688 95.492188 156.515625 C 91.945312 156.679688 88.515625 157.394531 85.203125 158.671875 L 97.894531 232.085938 C 98.078125 233.15625 98.304688 234.21875 98.582031 235.273438 C 98.859375 236.324219 99.179688 237.363281 99.550781 238.386719 C 99.917969 239.414062 100.328125 240.417969 100.785156 241.40625 C 101.242188 242.394531 101.738281 243.363281 102.28125 244.308594 C 102.820312 245.253906 103.402344 246.171875 104.023438 247.066406 C 104.644531 247.957031 105.304688 248.824219 106 249.660156 C 106.699219 250.496094 107.429688 251.296875 108.199219 252.070312 C 108.96875 252.839844 109.765625 253.578125 110.597656 254.28125 C 111.433594 254.980469 112.292969 255.644531 113.183594 256.269531 C 114.074219 256.894531 114.992188 257.480469 115.933594 258.027344 C 116.875 258.570312 117.839844 259.074219 118.824219 259.535156 C 119.8125 259.996094 120.816406 260.414062 121.839844 260.785156 C 122.863281 261.160156 123.898438 261.484375 124.949219 261.765625 C 126 262.046875 127.0625 262.285156 128.136719 262.472656 C 129.207031 262.660156 130.285156 262.800781 131.371094 262.894531 C 132.453125 262.988281 133.539062 263.035156 134.628906 263.035156 L 236.859375 263.035156 C 237.933594 263.03125 239.007812 262.984375 240.078125 262.890625 C 241.144531 262.796875 242.210938 262.65625 243.269531 262.46875 C 244.324219 262.285156 245.375 262.054688 246.410156 261.777344 C 247.449219 261.5 248.472656 261.179688 249.484375 260.816406 C 250.492188 260.449219 251.484375 260.042969 252.460938 259.59375 C 253.4375 259.144531 254.390625 258.652344 255.324219 258.117188 C 256.253906 257.585938 257.164062 257.015625 258.046875 256.402344 C 258.929688 255.792969 259.785156 255.144531 260.613281 254.460938 C 261.441406 253.777344 262.234375 253.058594 263 252.304688 C 263.765625 251.550781 264.5 250.765625 265.195312 249.949219 C 265.894531 249.132812 266.554688 248.285156 267.179688 247.414062 C 267.804688 246.539062 268.390625 245.640625 268.9375 244.714844 C 269.484375 243.792969 269.992188 242.847656 270.457031 241.878906 C 270.921875 240.910156 271.34375 239.925781 271.726562 238.921875 C 272.105469 237.917969 272.441406 236.898438 272.734375 235.863281 C 273.027344 234.832031 273.273438 233.785156 273.476562 232.730469 L 287.195312 160.929688 C 283.53125 160.292969 279.84375 160.097656 276.136719 160.339844 C 272.425781 160.578125 268.796875 161.253906 265.246094 162.355469 Z M 265.246094 162.355469 "/></g></svg>