<svg xmlns="http://www.w3.org/2000/svg" xmlns:xlink="http://www.w3.org/1999/xlink" width="500" zoomAndPan="magnify" viewBox="0 0 375 374.999991" height="500" preserveAspectRatio="xMidYMid meet" version="1.2"><defs><clipPath id="e88c162d44"><path d="M 243 244 L 304 244 L 304 273 L 243 273 Z M 243 244 "/></clipPath><clipPath id="f56ee354d6"><path d="M 78.128906 94.863281 L 328.140625 161.742188 L 296.371094 280.496094 L 46.363281 213.617188 Z M 78.128906 94.863281 "/></clipPath><clipPath id="b1a0e4fd5a"><path d="M 78.128906 94.863281 L 328.140625 161.742188 L 296.371094 280.496094 L 46.363281 213.617188 Z M 78.128906 94.863281 "/></clipPath><clipPath id="1918ecc9bc"><path d="M 60 142 L 305 142 L 305 247 L 60 247 Z M 60 142 "/></clipPath><clipPath id="2d66466bd4"><path d="M 78.128906 94.863281 L 328.140625 161.742188 L 296.371094 280.496094 L 46.363281 213.617188 Z M 78.128906 94.863281 "/></clipPath><clipPath id="4db5855865"><path d="M 78.128906 94.863281 L 328.140625 161.742188 L 296.371094 280.496094 L 46.363281 213.617188 Z M 78.128906 94.863281 "/></clipPath><clipPath id="6e74887511"><path d="M 16.882812 16.882812 L 356.558594 16.882812 L 356.558594 356.558594 L 16.882812 356.558594 Z M 16.882812 16.882812 "/></clipPath></defs><g id="7c7e967ca4"><g clip-rule="nonzero" clip-path="url(#e88c162d44)"><g clip-rule="nonzero" clip-path="url(#f56ee354d6)"><g clip-rule="nonzero" clip-path="url(#b1a0e4fd5a)"><path style=" stroke:none;fill-rule:nonzero;fill:#1893f8;fill-opacity:1;" d="M 302.148438 251.324219 C 280.304688 238.292969 256.214844 246.253906 243.070312 252.753906 C 245.800781 258.070312 253.417969 268.023438 272.292969 271.625 C 291.855469 275.363281 300.480469 260.628906 303.460938 253.269531 L 303.851562 252.359375 C 303.28125 251.96875 302.742188 251.628906 302.148438 251.324219 Z M 302.148438 251.324219 "/></g></g></g><g clip-rule="nonzero" clip-path="url(#1918ecc9bc)"><g clip-rule="nonzero" clip-path="url(#2d66466bd4)"><g clip-rule="nonzero" clip-path="url(#4db5855865)"><path style=" stroke:none;fill-rule:nonzero;fill:#1893f8;fill-opacity:1;" d="M 303.398438 241.425781 C 311 198.773438 270.921875 182.585938 244.578125 218.066406 C 243.183594 220.203125 240.28125 220.777344 238.144531 219.386719 C 235.972656 217.933594 235.386719 215.074219 236.835938 212.90625 C 247.621094 196.910156 266.613281 186.117188 285.121094 190.292969 C 267.835938 145.761719 236.023438 165.585938 224.046875 188.535156 C 221.25 194.046875 213.089844 189.945312 215.675781 184.460938 C 216.132812 183.472656 225.734375 164.175781 244.089844 156.921875 C 216.914062 133.902344 193.628906 162.738281 187.035156 178.390625 C 184.519531 184.007812 176.160156 180.398438 178.453125 174.742188 C 178.828125 173.878906 185.761719 157.875 199.28125 147.589844 C 162.570312 136.558594 156.285156 162.515625 161.242188 184.042969 C 162.714844 189.894531 153.808594 192.339844 152.210938 186.40625 C 151.945312 185.417969 147.234375 166.925781 154.582031 152.09375 C 145.375 151.347656 132.703125 154.417969 130.238281 165.324219 C 125.09375 184.558594 127.855469 192.824219 127.917969 192.941406 C 129.886719 198.519531 121.429688 201.859375 119.210938 196.257812 C 118.765625 195.222656 115.265625 185.210938 121.230469 162.914062 C 121.722656 161.066406 122.375 159.355469 123.179688 157.785156 C 103.421875 147.796875 93.132812 166.703125 91.433594 182.457031 C 90.6875 188.464844 81.582031 187.582031 82.152344 181.421875 C 82.257812 180.484375 84.734375 159.136719 98.046875 150.144531 C 87.851562 141.839844 70.769531 137.078125 63.914062 154.144531 C 59.878906 163.636719 59.945312 177.460938 64.039062 187.050781 C 65.675781 190.867188 73.46875 200.53125 79.171875 201.042969 C 85.167969 201.078125 88.929688 206.339844 94.71875 206.261719 C 99.574219 205.96875 104.675781 207.285156 109.460938 210.160156 C 113.324219 212.496094 117.019531 213.289062 120.371094 212.496094 C 132.636719 208.589844 141.976562 217.898438 153.582031 215.203125 C 160.480469 212.488281 170.386719 217.667969 177.421875 217.382812 C 185.984375 215.980469 191.550781 219.890625 198.625 221.316406 C 205.75 221.917969 211.746094 224.585938 215.882812 228.972656 C 217.496094 230.707031 219.046875 231.945312 220.496094 232.667969 C 224.183594 234.574219 227.167969 237.496094 229.144531 241.113281 C 230.671875 243.886719 232.3125 245.871094 234.136719 246.984375 C 246.910156 240.023438 276.046875 227.640625 303.398438 241.425781 Z M 303.398438 241.425781 "/></g></g></g><path style=" stroke:none;fill-rule:nonzero;fill:#055393;fill-opacity:1;" d="M 64.695312 284.90625 L 285.664062 63.933594 L 309.683594 87.949219 L 88.714844 308.925781 Z M 64.695312 284.90625 "/><g clip-rule="nonzero" clip-path="url(#6e74887511)"><path style=" stroke:none;fill-rule:nonzero;fill:#055393;fill-opacity:1;" d="M 186.722656 16.882812 C 93.3125 16.882812 16.882812 93.3125 16.882812 186.722656 C 16.882812 280.132812 93.3125 356.558594 186.722656 356.558594 C 280.132812 356.558594 356.558594 280.132812 356.558594 186.722656 C 356.558594 93.3125 280.132812 16.882812 186.722656 16.882812 Z M 186.722656 322.59375 C 111.992188 322.59375 50.851562 261.449219 50.851562 186.722656 C 50.851562 111.992188 111.992188 50.851562 186.722656 50.851562 C 261.449219 50.851562 322.59375 111.992188 322.59375 186.722656 C 322.59375 261.449219 261.449219 322.59375 186.722656 322.59375 Z M 186.722656 322.59375 "/></g></g></svg>